<?xml version="1.0" encoding="utf-8"?>
<!-- Generator: Adobe Illustrator 24.0.1, SVG Export Plug-In . SVG Version: 6.00 Build 0)  -->
<svg version="1.1" id="Capa_1" xmlns="http://www.w3.org/2000/svg" xmlns:xlink="http://www.w3.org/1999/xlink" x="0px" y="0px"
	 viewBox="0 0 54 64" style="enable-background:new 0 0 54 64;" xml:space="preserve">
<style type="text/css">
	.st0{display:none;fill:url(#SVGID_1_);}
	.st1{stroke:#000000;stroke-miterlimit:10;}
	.st2{font-family:'Arial-BoldMT';}
	.st3{font-size:17.438px;}
	.st4{font-size:10.6566px;}
	.st5{stroke:#000000;stroke-width:0.25;stroke-miterlimit:10;}
	.st6{font-size:9.6878px;}
</style>
<linearGradient id="SVGID_1_" gradientUnits="userSpaceOnUse" x1="-265" y1="446.3116" x2="-264" y2="446.3116" gradientTransform="matrix(54 0 0 -64 14310 28595.9453)">
	<stop  offset="0" style="stop-color:#3CA4E7"/>
	<stop  offset="1" style="stop-color:#3C71DD"/>
</linearGradient>
<path class="st0" d="M10.2,61.9l0.6-4.7c-1.4-1.8-5-3.3-10.8-4.6V38.8h5.3c24.2,0,36.3-8.9,36.3-26.7c0-2.1-0.1-4.1-0.4-5.9
	C49,12,54,21.3,54,31.8C54,49.6,39.5,64,21.7,64C17.6,64,13.8,63.3,10.2,61.9z M0,8c4.7-4.2,10.5-7,16.8-8c1,0.4,2,0.8,2.8,1.3
	c2.9,1.8,4.3,5.3,4.3,10.5s-1.3,8.9-4,11c-2.6,2.1-6.6,3.2-12,3.2H0V8z"/>
<text transform="matrix(1 0 0 1 0.8433 34.1095)"><tspan x="0" y="0" class="st1 st2 st3">SEED.</tspan><tspan x="0" y="9.7" class="st1 st2 st4">   </tspan><tspan x="8.9" y="9.7" class="st5 st2 st6">SCHOOL</tspan></text>
</svg>
